<svg id="Layer_1" data-name="Layer 1" xmlns="http://www.w3.org/2000/svg" viewBox="0 0 1118.86 1118.86"><defs><style>.cls-1{fill:#fefefe;}.cls-2{fill:#999;}.cls-3{fill:#e4e5e6;}.cls-4{fill:#d9d9d9;}.cls-5{fill:#979797;}.cls-6{fill:#484868;}.cls-7{fill:#3e3e55;}.cls-8{fill:#808082;}.cls-9{fill:#cf2e2e;}.cls-10{fill:#ac1e1e;}.cls-11{fill:#3d3d54;}.cls-12{fill:#f7b838;}.cls-13{fill:#fbd149;}.cls-14{fill:#669a67;}.cls-15{fill:#7dbb7d;}.cls-16{fill:#f1f1f1;}</style></defs><path class="cls-1" d="M543.08,1118.65H.2Q.2,564.33,0,10C0,1.84,1.84,0,10,0Q559.43.36,1108.84,0c8.17,0,10,1.84,10,10q-.36,549.41,0,1098.82c0,8.17-1.83,10-10,10q-268.71-.42-537.42-.21c1.1-2.55,3.62-1.9,5.59-2.51,27-8.3,47.21-32.88,48.85-59.43,1.85-30-14-57.22-41.06-67.89-8.23-3.24-9.63-7.51-9.58-15.23.23-37.4-.07-74.8-.18-112.2,154.38,0,308.76-.39,463.14.25,39.71.17,69.85-29.43,69.75-69.6-.44-169.63-.19-339.27-.19-508.9q0-102.43,0-204.87c-.06-31.88-28.82-62.64-59.11-62.72-79.18-.2-158.37,0-237.56,0-11.57-9.95-24.92-13.4-40.2-13.37q-212.51.42-425,0c-15.27,0-28.63,3.41-40.19,13.38-52.74,0-105.48-.35-158.21.14-6.94.07-13.82-5.15-20.75-.35-17.8,0-35.63.64-53.4-.13C40.22,13.82,8.82,44.66,8.84,79.51q.25,359.16.12,718.3c0,33.68,29.63,63.39,63.12,63.55,18.89.09,37.78,0,56.68-.05l412.88.07c-.11,37.42-.41,74.85-.17,112.26.06,7.79-1.56,11.85-9.65,15.19-44.17,18.27-55,75.38-21.65,109.58C519.6,1108.09,531.85,1112.34,543.08,1118.65Z"/><path class="cls-2" d="M543.08,1118.65c-11.23-6.31-23.48-10.56-32.91-20.24-33.31-34.2-22.52-91.31,21.65-109.58,8.09-3.34,9.71-7.4,9.65-15.19-.24-37.41.06-74.84.17-112.25,10.59-16.52,22.78-16.52,33.4,0,.11,37.4.41,74.8.18,112.2-.05,7.72,1.35,12,9.58,15.23,27.07,10.67,42.91,37.91,41.06,67.89-1.64,26.55-21.84,51.13-48.85,59.43-2,.61-4.49,0-5.59,2.51ZM593,1050.9c0-18.43-16.57-34.77-35-34.55-18.6.21-34.7,16.71-34.31,35.18.37,17.86,16.6,33.94,34.42,34.1C576.41,1085.79,593,1069.25,593,1050.9Z"/><path class="cls-3" d="M575,861.39c-10.62-16.52-22.81-16.52-33.4,0l-412.88-.08c-14.56-6.25-29.35-11.92-39.11-25.75-12-17-14.63-35.81-12.73-55.82,6.28,9.45,14.51,15.84,26.36,15.86,15.77,0,31.53-.23,47.3-.36,8.69-.14,17.39-.42,26.08-.42q415.18,0,830.37,0c25.52,0,34-8.45,34-34q0-323.1,0-646.2c0-24.37-9.2-33.45-33.65-33.47Q909.28,81,811.21,81c1.89-3,3.89-6,5.65-9,8.54-15,10.43-30.2,1-45.6L811,15.59c79.19,0,158.38-.24,237.56,0,30.29.08,59.05,30.84,59.11,62.72q.19,102.43,0,204.87c0,169.63-.25,339.27.19,508.9.1,40.17-30,69.77-69.75,69.6C883.8,861,729.42,861.39,575,861.39Z"/><path class="cls-4" d="M76.92,779.74c-1.9,20,.75,38.84,12.73,55.82,9.76,13.83,24.55,19.5,39.11,25.75-18.9,0-37.79.14-56.68.05C38.59,861.2,9,831.49,9,797.81q-.08-359.14-.12-718.3c0-34.85,31.38-65.69,64.44-64.25,17.77.77,35.6.13,53.4.13-1.16.76-2.23,1.85-3.51,2.25C86.5,29.13,71.73,65.83,77.53,96.08c-2.43,7-2.86,14.11-2.86,21.44q.1,318.15,0,636.31C74.68,762.56,74.79,771.22,76.92,779.74Z"/><path class="cls-5" d="M811,15.59l6.79,10.75c-11.53,15.25-26.72,22-46,22q-213-.34-425.93-.06c-19.32,0-35.43-5.92-47.09-21.9l6.79-10.73c11.56-10,24.92-13.41,40.19-13.38q212.49.42,425,0C786.11,2.19,799.46,5.64,811,15.59Z"/><path class="cls-3" d="M305.64,15.6l-6.79,10.73c-2.47,2.32-3.19,5.47-4.23,8.52C288.64,52.5,296,67,305.47,81l-157.05.29c-14-.11-28.08.07-42.1-.42C93.6,80.4,84,85.13,77.54,96.08c-5.81-30.25,9-66.95,45.63-78.44,1.28-.4,2.35-1.49,3.51-2.25,6.93-4.8,13.81.42,20.75.35C200.16,15.25,252.9,15.55,305.64,15.6Z"/><path class="cls-1" d="M593,1050.9c0,18.35-16.57,34.89-34.86,34.73-17.82-.16-34-16.24-34.42-34.1-.39-18.47,15.71-35,34.31-35.18C576.41,1016.13,592.94,1032.47,593,1050.9Z"/><path class="cls-6" d="M148.42,81.26,305.47,81c12.16,9.55,25.83,13.18,41.39,13.15q211.47-.44,422.95,0c15.57,0,29.23-3.62,41.4-13.15q98.07.07,196.14.17c24.45,0,33.64,9.1,33.65,33.47q0,323.1,0,646.2c0,25.53-8.45,34-34,34q-415.18,0-830.37,0c-8.69,0-17.39.28-26.08.42C132.73,782.68,133,764.26,133,745q.45-307.81,0-615.63C133,111.38,132.66,93.93,148.42,81.26ZM340.53,561.12c-20.29-.19-40.59-.51-60.88-.54-24.9,0-41.17,15.45-41.55,40.22-.38,25,0,50,.11,75.06-10.9.07-21.79.09-32.69.22-12.89.15-20.27,6.75-20,17.73.25,9.35,7.65,15,19.9,15H915.94c12.06,0,19.5-5.88,19.56-15.3.08-10.6-7.12-17.19-19.24-17.38-12.71-.21-25.42-.24-38.13-.35q.14-119.65.25-239.32c0-37.72.09-75.43,0-113.14-.07-19.9-9.62-34.57-25.38-38.87-7.76-2.12-15.86-1.06-23.81-1.09l-2.5-.92-4.4.05c-21.77-.23-43.57-1.36-65.29-.45-22.22.94-37.1,16.49-37.12,37.69q-.18,178.14.1,356.28l-83.2,0c.08-65.28.32-130.55.14-195.83,0-17.5-12.49-30.8-29.71-33.57a85.54,85.54,0,0,0-20.59-.86,1.87,1.87,0,0,0-2-.11l-4.36,0c-21.77-.15-43.55-.85-65.29-.29-19.54.5-35,16.09-35,34.63-.1,65.33.06,130.67.13,196l-83.37-.08c.07-25.69.31-51.39.15-77.08-.11-15.91-7.29-27.76-22.11-34.25C363.77,559.76,352.1,560.6,340.53,561.12ZM278.17,231c24.33,0,48.67.09,73,0,13.07-.06,20.83-6.72,20.58-17.21-.23-10.12-7.48-16.16-20.38-16.19q-72.45-.18-144.92,0c-13.9,0-21,5.89-21,16.56,0,11,7.46,16.82,21.93,16.86C231,231,254.56,231,278.17,231Zm1.11,71.23c24.69,0,49.39.21,74.09-.09,11.66-.14,18.68-7.13,18.38-17-.27-9.4-7.3-15.85-18.22-16.27-7.26-.28-14.53-.06-21.79-.06-42.14,0-84.27-.09-126.4,0-13.83.05-22.1,8.47-19.67,19.88,2.2,10.36,9.85,13.56,19.51,13.55Q242.23,302.19,279.28,302.18Z"/><path class="cls-7" d="M148.42,81.26c-15.76,12.67-15.39,30.12-15.37,48.15q.36,307.82,0,615.63c0,19.22-.29,37.64,17.56,50.2-15.77.13-31.53.38-47.3.36-11.85,0-20.08-6.41-26.36-15.86-2.13-8.52-2.24-17.18-2.24-25.91q.09-318.15,0-636.31c0-7.33.43-14.49,2.86-21.44C84,85.13,93.6,80.4,106.32,80.84,120.34,81.33,134.39,81.15,148.42,81.26Z"/><path class="cls-8" d="M811.21,81C799,90.5,785.38,94.16,769.81,94.12q-211.47-.44-422.95,0c-15.56,0-29.23-3.6-41.39-13.15C296,67,288.64,52.5,294.62,34.85c1-3.05,1.76-6.2,4.23-8.52,11.66,16,27.77,21.92,47.09,21.9q213-.19,425.93.06c19.23,0,34.42-6.7,46-21.95,9.47,15.4,7.58,30.59-1,45.6C815.1,75,813.1,78,811.21,81Z"/><path class="cls-9" d="M829.16,283.32c8,0,16.05-1,23.81,1.09,15.76,4.3,25.31,19,25.38,38.87.12,37.71.06,75.42,0,113.14q-.11,119.66-.25,239.32H798.27q0-175.77,0-351.54c0-14,4.09-26.4,15.79-35.28,2.78-2.1,7.11-2.25,8.22-6.47l4.4-.06Z"/><path class="cls-10" d="M822.26,282.45c-1.11,4.22-5.44,4.37-8.22,6.47-11.7,8.88-15.78,21.32-15.79,35.28q-.09,175.77,0,351.54L720,676q-.11-178.14-.1-356.28c0-21.2,14.9-36.75,37.12-37.69C778.69,281.09,800.49,282.22,822.26,282.45Z"/><path class="cls-11" d="M720,676l78.32-.23h79.86c12.71.11,25.42.14,38.13.35,12.12.19,19.32,6.78,19.24,17.38-.06,9.42-7.5,15.3-19.56,15.3H205.43c-12.25,0-19.65-5.61-19.9-15-.28-11,7.1-17.58,20-17.73,10.9-.13,21.79-.15,32.69-.22l80.4,0,78.07,0,83.37.08,78.31-.21,78.39.26Z"/><path class="cls-12" d="M558.36,675.76l-78.31.21c-.07-65.33-.23-130.67-.13-196,0-18.54,15.44-34.13,35-34.63,21.74-.56,43.52.14,65.29.29-.27,1.95-1.51,3.05-3.08,4.16-13.81,9.77-19.24,22.79-19,40C558.77,551.78,558.36,613.77,558.36,675.76Z"/><path class="cls-13" d="M558.36,675.76c0-62,.41-124-.29-186-.2-17.22,5.23-30.24,19-40,1.57-1.11,2.81-2.21,3.08-4.16l4.36,0,2,.11a85.54,85.54,0,0,1,20.59.86c17.22,2.77,29.66,16.07,29.71,33.57.18,65.28-.06,130.55-.14,195.83Z"/><path class="cls-14" d="M318.61,675.84l-80.4,0c-.07-25-.49-50.05-.11-75.06.38-24.77,16.65-40.25,41.55-40.22,20.29,0,40.59.35,60.88.54-.32,2.45-2.18,3.54-4,4.71-13.43,8.44-18.76,20.43-18.21,36.39C319.12,626.74,318.57,651.3,318.61,675.84Z"/><path class="cls-15" d="M318.61,675.84c0-24.54.51-49.1-.33-73.62-.55-16,4.78-28,18.21-36.39,1.86-1.17,3.72-2.26,4-4.71,11.57-.52,23.24-1.36,34.19,3.44,14.82,6.49,22,18.34,22.11,34.25.16,25.69-.08,51.39-.15,77.08Z"/><path class="cls-16" d="M278.17,231c-23.61,0-47.22,0-70.83,0-14.47,0-22-5.87-21.93-16.86,0-10.67,7.14-16.53,21-16.56q72.46-.18,144.92,0c12.9,0,20.15,6.07,20.38,16.19.25,10.49-7.51,17.15-20.58,17.21C326.84,231,302.5,231,278.17,231Z"/><path class="cls-16" d="M279.28,302.19h-74.1c-9.66,0-17.31-3.19-19.51-13.55-2.43-11.41,5.84-19.83,19.67-19.88,42.13-.14,84.26,0,126.4,0,7.26,0,14.53-.22,21.79.06,10.92.42,18,6.87,18.22,16.27.3,9.91-6.72,16.9-18.38,17C328.67,302.39,304,302.18,279.28,302.19Z"/><path class="cls-10" d="M829.16,283.32l-2.5-.93Z"/><path class="cls-12" d="M586.59,445.76l-2-.11A1.87,1.87,0,0,1,586.59,445.76Z"/></svg>